<svg width="32" height="32" viewBox="0 0 32 32" fill="none" xmlns="http://www.w3.org/2000/svg">
<g clip-path="url(#clip0_5_7)">
<path d="M3.23276 19.3049C3.23276 18.929 3.42948 18.6754 3.82291 18.5443L4.46552 18.3738C4.6841 18.2951 4.84584 18.1946 4.95076 18.0722C5.06442 17.9498 5.12125 17.788 5.12125 17.5869V4.05279C5.12125 3.8517 5.06442 3.68995 4.95076 3.56755C4.84584 3.44515 4.6841 3.3446 4.46552 3.26592L3.8098 3.09543C3.42511 2.96428 3.23276 2.71074 3.23276 2.33479C3.23276 2.11621 3.30708 1.94572 3.45571 1.82332C3.60434 1.70092 3.82728 1.63972 4.12455 1.63972H11.626C13.2435 1.63972 14.7123 1.88015 16.0325 2.36102C17.3527 2.83314 18.4893 3.50635 19.4423 4.38065C20.3953 5.25495 21.1297 6.29536 21.6455 7.5019C22.1613 8.69968 22.4193 10.0286 22.4193 11.4887C22.4193 13.1411 22.0302 14.6099 21.2521 15.8952C20.4827 17.1716 19.3811 18.1771 17.9472 18.9115C16.5221 19.6372 14.826 20 12.8588 20H4.12455C3.81854 20 3.59122 19.9388 3.44259 19.8164C3.30271 19.6853 3.23276 19.5148 3.23276 19.3049ZM12.3211 18.5181C13.2741 18.5181 14.1178 18.2645 14.8522 17.7574C15.5953 17.2503 16.1724 16.4722 16.5833 15.423C17.003 14.3739 17.2128 13.0275 17.2128 11.3838C17.2128 10.0898 17.0729 8.93575 16.7931 7.92156C16.5134 6.89863 16.1068 6.03307 15.5735 5.32489C15.0402 4.60797 14.3976 4.06153 13.6457 3.68558C12.8938 3.30963 12.0457 3.12166 11.1015 3.12166H10.1572V17.246C10.1572 17.6831 10.2752 18.0066 10.5113 18.2164C10.7474 18.4175 11.0927 18.5181 11.5473 18.5181H12.3211Z" fill="#DBA614"/>
<path d="M9.79 29.1408C9.79 28.7648 9.98672 28.5113 10.3802 28.3802L11.0228 28.2097C11.2413 28.131 11.4031 28.0304 11.508 27.908C11.6217 27.7856 11.6785 27.6239 11.6785 27.4228V13.8886C11.6785 13.6876 11.6217 13.5258 11.508 13.4034C11.4031 13.281 11.2413 13.1805 11.0228 13.1018L10.367 12.9313C9.98235 12.8001 9.79 12.5466 9.79 12.1707C9.79 11.9521 9.86432 11.7816 10.0129 11.6592C10.1616 11.5368 10.3845 11.4756 10.6818 11.4756H18.1833C19.8007 11.4756 21.2695 11.716 22.5897 12.1969C23.9099 12.669 25.0465 13.3422 25.9995 14.2165C26.9525 15.0908 27.6869 16.1312 28.2027 17.3378C28.7186 18.5355 28.9765 19.8645 28.9765 21.3246C28.9765 22.977 28.5874 24.4458 27.8093 25.731C27.0399 27.0075 25.9383 28.013 24.5045 28.7474C23.0793 29.473 21.3832 29.8359 19.416 29.8359H10.6818C10.3758 29.8359 10.1485 29.7747 9.99983 29.6523C9.85995 29.5211 9.79 29.3506 9.79 29.1408ZM18.8783 28.3539C19.8313 28.3539 20.675 28.1004 21.4094 27.5933C22.1526 27.0862 22.7296 26.3081 23.1405 25.2589C23.5602 24.2097 23.77 22.8633 23.77 21.2196C23.77 19.9257 23.6302 18.7716 23.3504 17.7574C23.0706 16.7345 22.6641 15.8689 22.1307 15.1608C21.5974 14.4438 20.9548 13.8974 20.2029 13.5214C19.451 13.1455 18.6029 12.9575 17.6587 12.9575H16.7145V27.0818C16.7145 27.519 16.8325 27.8425 17.0685 28.0523C17.3046 28.2534 17.65 28.3539 18.1046 28.3539H18.8783Z" fill="#DBA614"/>
</g>
<defs>
<clipPath id="clip0_5_7">
<rect width="32" height="32" fill="white"/>
</clipPath>
</defs>
</svg>
